<svg xmlns="http://www.w3.org/2000/svg" width="227.051" height="267.305" fill="none" overflow="visible"><path d="M 80.046 1.926 C 107.144 -3.273 131.669 3.491 137.915 5.423 L 146.059 8.138 L 78.36 206.653 L 70.361 203.947 C 68.167 203.077 44.321 194.779 24.987 174.132 C 5.681 153.517 -9.161 120.557 6.686 70.25 C 23.288 24.258 52.973 7.12 80.044 1.926 Z M 112.756 17.601 C 93.547 14.009 49.621 17.833 28.169 69.837 C 22.865 82.691 23.379 94.175 27.442 103.395 C 31.502 112.607 39.088 119.525 47.87 123.287 C 56.65 127.048 66.652 127.665 75.548 124.244 C 84.456 120.818 92.213 113.359 96.518 101.058 L 96.52 101.053 L 120.667 29.83 C 122.568 24.26 118.606 18.984 113.276 17.712 L 112.756 17.602 Z M 156.722 64.088 L 156.722 64.089 C 158.731 64.829 182.578 73.129 201.955 93.806 C 221.302 114.451 236.228 147.467 220.391 197.764 C 203.794 243.756 172.614 260.495 144.775 265.488 C 116.899 270.487 92.353 263.705 89.141 262.61 L 89.138 262.609 L 80.993 259.893 L 148.71 61.378 Z M 179.201 144.746 C 170.421 140.985 160.419 140.367 151.523 143.788 C 142.614 147.214 134.858 154.674 130.553 166.975 L 130.551 166.979 L 106.404 238.202 C 104.503 243.772 108.465 249.048 113.795 250.321 L 114.314 250.431 C 133.524 254.024 177.451 250.199 198.903 198.196 C 204.207 185.341 203.692 173.857 199.629 164.637 C 195.569 155.425 187.983 148.508 179.201 144.746 Z" fill="transparent" stroke="rgb(255, 255, 255)" stroke-miterlimit="10" stroke-dasharray=""></path></svg>
